<svg xmlns="http://www.w3.org/2000/svg" viewBox="0 0 32 32">
  <g shape-rendering="geometricPrecision">
    <path fill="#ff4d57" d="M 14.932 3.495 A 12.550 12.550 0 0 1 17.068 3.495 L 16.600 8.976 A 7.050 7.050 0 0 0 15.400 8.976 Z"/>
    <path fill="#ff564f" d="M 16.902 3.482 A 12.550 12.550 0 0 1 19.011 3.816 L 17.691 9.156 A 7.050 7.050 0 0 0 16.507 8.968 Z"/>
    <path fill="#ff5f47" d="M 18.849 3.778 A 12.550 12.550 0 0 1 20.879 4.437 L 18.741 9.505 A 7.050 7.050 0 0 0 17.600 9.134 Z"/>
    <path fill="#ff6840" d="M 20.726 4.374 A 12.550 12.550 0 0 1 22.628 5.343 L 19.723 10.013 A 7.050 7.050 0 0 0 18.655 9.469 Z"/>
    <path fill="#ff7237" d="M 22.486 5.256 A 12.550 12.550 0 0 1 24.214 6.511 L 20.614 10.670 A 7.050 7.050 0 0 0 19.644 9.965 Z"/>
    <path fill="#ff7c2e" d="M 24.087 6.403 A 12.550 12.550 0 0 1 25.597 7.913 L 21.391 11.457 A 7.050 7.050 0 0 0 20.543 10.609 Z"/>
    <path fill="#ff8625" d="M 25.489 7.786 A 12.550 12.550 0 0 1 26.744 9.514 L 22.035 12.356 A 7.050 7.050 0 0 0 21.330 11.386 Z"/>
    <path fill="#ff911e" d="M 26.657 9.372 A 12.550 12.550 0 0 1 27.626 11.274 L 22.531 13.345 A 7.050 7.050 0 0 0 21.987 12.277 Z"/>
    <path fill="#ff9b1d" d="M 27.563 11.121 A 12.550 12.550 0 0 1 28.222 13.151 L 22.866 14.400 A 7.050 7.050 0 0 0 22.495 13.259 Z"/>
    <path fill="#ffa61c" d="M 28.184 12.989 A 12.550 12.550 0 0 1 28.518 15.098 L 23.032 15.493 A 7.050 7.050 0 0 0 22.844 14.309 Z"/>
    <path fill="#ffb11a" d="M 28.505 14.932 A 12.550 12.550 0 0 1 28.505 17.068 L 23.024 16.600 A 7.050 7.050 0 0 0 23.024 15.400 Z"/>
    <path fill="#f8be1d" d="M 28.518 16.902 A 12.550 12.550 0 0 1 28.184 19.011 L 22.844 17.691 A 7.050 7.050 0 0 0 23.032 16.507 Z"/>
    <path fill="#f2ca1f" d="M 28.222 18.849 A 12.550 12.550 0 0 1 27.563 20.879 L 22.495 18.741 A 7.050 7.050 0 0 0 22.866 17.600 Z"/>
    <path fill="#ebd722" d="M 27.626 20.726 A 12.550 12.550 0 0 1 26.657 22.628 L 21.987 19.723 A 7.050 7.050 0 0 0 22.531 18.655 Z"/>
    <path fill="#d7d923" d="M 26.744 22.486 A 12.550 12.550 0 0 1 25.489 24.214 L 21.330 20.614 A 7.050 7.050 0 0 0 22.035 19.644 Z"/>
    <path fill="#bbd722" d="M 25.597 24.087 A 12.550 12.550 0 0 1 24.087 25.597 L 20.543 21.391 A 7.050 7.050 0 0 0 21.391 20.543 Z"/>
    <path fill="#9fd522" d="M 24.214 25.489 A 12.550 12.550 0 0 1 22.486 26.744 L 19.644 22.035 A 7.050 7.050 0 0 0 20.614 21.330 Z"/>
    <path fill="#85d228" d="M 22.628 26.657 A 12.550 12.550 0 0 1 20.726 27.626 L 18.655 22.531 A 7.050 7.050 0 0 0 19.723 21.987 Z"/>
    <path fill="#6bcf38" d="M 20.879 27.563 A 12.550 12.550 0 0 1 18.849 28.222 L 17.600 22.866 A 7.050 7.050 0 0 0 18.741 22.495 Z"/>
    <path fill="#52cb49" d="M 19.011 28.184 A 12.550 12.550 0 0 1 16.902 28.518 L 16.507 23.032 A 7.050 7.050 0 0 0 17.691 22.844 Z"/>
    <path fill="#39c85a" d="M 17.068 28.505 A 12.550 12.550 0 0 1 14.932 28.505 L 15.400 23.024 A 7.050 7.050 0 0 0 16.600 23.024 Z"/>
    <path fill="#2ec86d" d="M 15.098 28.518 A 12.550 12.550 0 0 1 12.989 28.184 L 14.309 22.844 A 7.050 7.050 0 0 0 15.493 23.032 Z"/>
    <path fill="#24c980" d="M 13.151 28.222 A 12.550 12.550 0 0 1 11.121 27.563 L 13.259 22.495 A 7.050 7.050 0 0 0 14.400 22.866 Z"/>
    <path fill="#1ac993" d="M 11.274 27.626 A 12.550 12.550 0 0 1 9.372 26.657 L 12.277 21.987 A 7.050 7.050 0 0 0 13.345 22.531 Z"/>
    <path fill="#16caa8" d="M 9.514 26.744 A 12.550 12.550 0 0 1 7.786 25.489 L 11.386 21.330 A 7.050 7.050 0 0 0 12.356 22.035 Z"/>
    <path fill="#17cbbe" d="M 7.913 25.597 A 12.550 12.550 0 0 1 6.403 24.087 L 10.609 20.543 A 7.050 7.050 0 0 0 11.457 21.391 Z"/>
    <path fill="#18ccd3" d="M 6.511 24.214 A 12.550 12.550 0 0 1 5.256 22.486 L 9.965 19.644 A 7.050 7.050 0 0 0 10.670 20.614 Z"/>
    <path fill="#1ac8e5" d="M 5.343 22.628 A 12.550 12.550 0 0 1 4.374 20.726 L 9.469 18.655 A 7.050 7.050 0 0 0 10.013 19.723 Z"/>
    <path fill="#21b9ee" d="M 4.437 20.879 A 12.550 12.550 0 0 1 3.778 18.849 L 9.134 17.600 A 7.050 7.050 0 0 0 9.505 18.741 Z"/>
    <path fill="#28abf6" d="M 3.816 19.011 A 12.550 12.550 0 0 1 3.482 16.902 L 8.968 16.507 A 7.050 7.050 0 0 0 9.156 17.691 Z"/>
    <path fill="#2f9cff" d="M 3.495 17.068 A 12.550 12.550 0 0 1 3.495 14.932 L 8.976 15.400 A 7.050 7.050 0 0 0 8.976 16.600 Z"/>
    <path fill="#3c8fff" d="M 3.482 15.098 A 12.550 12.550 0 0 1 3.816 12.989 L 9.156 14.309 A 7.050 7.050 0 0 0 8.968 15.493 Z"/>
    <path fill="#4983ff" d="M 3.778 13.151 A 12.550 12.550 0 0 1 4.437 11.121 L 9.505 13.259 A 7.050 7.050 0 0 0 9.134 14.400 Z"/>
    <path fill="#5776ff" d="M 4.374 11.274 A 12.550 12.550 0 0 1 5.343 9.372 L 10.013 12.277 A 7.050 7.050 0 0 0 9.469 13.345 Z"/>
    <path fill="#7266f7" d="M 5.256 9.514 A 12.550 12.550 0 0 1 6.511 7.786 L 10.670 11.386 A 7.050 7.050 0 0 0 9.965 12.356 Z"/>
    <path fill="#9454ec" d="M 6.403 7.913 A 12.550 12.550 0 0 1 7.913 6.403 L 11.457 10.609 A 7.050 7.050 0 0 0 10.609 11.457 Z"/>
    <path fill="#b541e0" d="M 7.786 6.511 A 12.550 12.550 0 0 1 9.514 5.256 L 12.356 9.965 A 7.050 7.050 0 0 0 11.386 10.670 Z"/>
    <path fill="#d137cb" d="M 9.372 5.343 A 12.550 12.550 0 0 1 11.274 4.374 L 13.345 9.469 A 7.050 7.050 0 0 0 12.277 10.013 Z"/>
    <path fill="#e03fa4" d="M 11.121 4.437 A 12.550 12.550 0 0 1 13.151 3.778 L 14.400 9.134 A 7.050 7.050 0 0 0 13.259 9.505 Z"/>
    <path fill="#f0467e" d="M 12.989 3.816 A 12.550 12.550 0 0 1 15.098 3.482 L 15.493 8.968 A 7.050 7.050 0 0 0 14.309 9.156 Z"/>
  </g>
  <circle cx="16" cy="16" r="12.55" fill="none" stroke="#101319" stroke-opacity="0.12" stroke-width="0.55"/>
  <circle cx="16" cy="16" r="7.05" fill="none" stroke="#101319" stroke-opacity="0.16" stroke-width="0.55"/>
</svg>
