<svg xmlns="http://www.w3.org/2000/svg" viewBox="0 0 512 512">
  <defs>
    <linearGradient id="bg" x1="64" y1="48" x2="438" y2="472" gradientUnits="userSpaceOnUse">
      <stop offset="0" stop-color="#0f1114"/>
      <stop offset="0.55" stop-color="#08090b"/>
      <stop offset="1" stop-color="#050608"/>
    </linearGradient>
    <radialGradient id="core" cx="50%" cy="40%" r="70%">
      <stop offset="0" stop-color="#1a1a1a"/>
      <stop offset="0.68" stop-color="#121212"/>
      <stop offset="1" stop-color="#0b0b0b"/>
    </radialGradient>
  </defs>

  <rect width="512" height="512" fill="url(#bg)"/>
  <rect x="16" y="16" width="480" height="480" rx="112" fill="none" stroke="#1d2128" stroke-opacity="0.72" stroke-width="2"/>

  <g shape-rendering="geometricPrecision">
    <path fill="#ff4d57" d="M 246.788 92.259 A 164.000 164.000 0 0 1 265.212 92.259 L 262.066 148.171 A 108.000 108.000 0 0 0 249.934 148.171 Z"/>
    <path fill="#ff5352" d="M 263.954 92.193 A 164.000 164.000 0 0 1 282.277 94.119 L 273.304 149.395 A 108.000 108.000 0 0 0 261.238 148.127 Z"/>
    <path fill="#ff594d" d="M 281.033 93.922 A 164.000 164.000 0 0 1 299.054 97.752 L 284.353 151.788 A 108.000 108.000 0 0 0 272.485 149.266 Z"/>
    <path fill="#ff5f47" d="M 297.838 97.426 A 164.000 164.000 0 0 1 315.360 103.120 L 295.091 155.323 A 108.000 108.000 0 0 0 283.552 151.573 Z"/>
    <path fill="#ff6542" d="M 314.184 102.668 A 164.000 164.000 0 0 1 331.015 110.162 L 305.400 159.960 A 108.000 108.000 0 0 0 294.316 155.025 Z"/>
    <path fill="#ff6b3d" d="M 329.893 109.590 A 164.000 164.000 0 0 1 345.848 118.802 L 315.168 165.650 A 108.000 108.000 0 0 0 304.661 159.584 Z"/>
    <path fill="#ff7237" d="M 344.792 118.116 A 164.000 164.000 0 0 1 359.697 128.945 L 324.288 172.330 A 108.000 108.000 0 0 0 314.473 165.198 Z"/>
    <path fill="#ff7931" d="M 358.718 128.153 A 164.000 164.000 0 0 1 372.410 140.481 L 332.660 179.926 A 108.000 108.000 0 0 0 323.644 171.808 Z"/>
    <path fill="#ff7f2b" d="M 371.519 139.590 A 164.000 164.000 0 0 1 383.847 153.282 L 340.192 188.356 A 108.000 108.000 0 0 0 332.074 179.340 Z"/>
    <path fill="#ff8625" d="M 383.055 152.303 A 164.000 164.000 0 0 1 393.884 167.208 L 346.802 197.527 A 108.000 108.000 0 0 0 339.670 187.712 Z"/>
    <path fill="#ff8d1f" d="M 393.198 166.152 A 164.000 164.000 0 0 1 402.410 182.107 L 352.416 207.339 A 108.000 108.000 0 0 0 346.350 196.832 Z"/>
    <path fill="#ff941e" d="M 401.838 180.985 A 164.000 164.000 0 0 1 409.332 197.816 L 356.975 217.684 A 108.000 108.000 0 0 0 352.040 206.600 Z"/>
    <path fill="#ff9b1d" d="M 408.880 196.640 A 164.000 164.000 0 0 1 414.574 214.162 L 360.427 228.448 A 108.000 108.000 0 0 0 356.677 216.909 Z"/>
    <path fill="#ffa31c" d="M 414.248 212.946 A 164.000 164.000 0 0 1 418.078 230.967 L 362.734 239.515 A 108.000 108.000 0 0 0 360.212 227.647 Z"/>
    <path fill="#ffaa1b" d="M 417.881 229.723 A 164.000 164.000 0 0 1 419.807 248.046 L 363.873 250.762 A 108.000 108.000 0 0 0 362.605 238.696 Z"/>
    <path fill="#ffb11a" d="M 419.741 246.788 A 164.000 164.000 0 0 1 419.741 265.212 L 363.829 262.066 A 108.000 108.000 0 0 0 363.829 249.934 Z"/>
    <path fill="#fbb91c" d="M 419.807 263.954 A 164.000 164.000 0 0 1 417.881 282.277 L 362.605 273.304 A 108.000 108.000 0 0 0 363.873 261.238 Z"/>
    <path fill="#f6c21e" d="M 418.078 281.033 A 164.000 164.000 0 0 1 414.248 299.054 L 360.212 284.353 A 108.000 108.000 0 0 0 362.734 272.485 Z"/>
    <path fill="#f2ca1f" d="M 414.574 297.838 A 164.000 164.000 0 0 1 408.880 315.360 L 356.677 295.091 A 108.000 108.000 0 0 0 360.427 283.552 Z"/>
    <path fill="#edd321" d="M 409.332 314.184 A 164.000 164.000 0 0 1 401.838 331.015 L 352.040 305.400 A 108.000 108.000 0 0 0 356.975 294.316 Z"/>
    <path fill="#e9db23" d="M 402.410 329.893 A 164.000 164.000 0 0 1 393.198 345.848 L 346.350 315.168 A 108.000 108.000 0 0 0 352.416 304.661 Z"/>
    <path fill="#d7d923" d="M 393.884 344.792 A 164.000 164.000 0 0 1 383.055 359.697 L 339.670 324.288 A 108.000 108.000 0 0 0 346.802 314.473 Z"/>
    <path fill="#c4d823" d="M 383.847 358.718 A 164.000 164.000 0 0 1 371.519 372.410 L 332.074 332.660 A 108.000 108.000 0 0 0 340.192 323.644 Z"/>
    <path fill="#b2d622" d="M 372.410 371.519 A 164.000 164.000 0 0 1 358.718 383.847 L 323.644 340.192 A 108.000 108.000 0 0 0 332.660 332.074 Z"/>
    <path fill="#9fd522" d="M 359.697 383.055 A 164.000 164.000 0 0 1 344.792 393.884 L 314.473 346.802 A 108.000 108.000 0 0 0 324.288 339.670 Z"/>
    <path fill="#8dd322" d="M 345.848 393.198 A 164.000 164.000 0 0 1 329.893 402.410 L 304.661 352.416 A 108.000 108.000 0 0 0 315.168 346.350 Z"/>
    <path fill="#7cd12d" d="M 331.015 401.838 A 164.000 164.000 0 0 1 314.184 409.332 L 294.316 356.975 A 108.000 108.000 0 0 0 305.400 352.040 Z"/>
    <path fill="#6bcf38" d="M 315.360 408.880 A 164.000 164.000 0 0 1 297.838 414.574 L 283.552 360.427 A 108.000 108.000 0 0 0 295.091 356.677 Z"/>
    <path fill="#5bcc44" d="M 299.054 414.248 A 164.000 164.000 0 0 1 281.033 418.078 L 272.485 362.734 A 108.000 108.000 0 0 0 284.353 360.212 Z"/>
    <path fill="#4aca4f" d="M 282.277 417.881 A 164.000 164.000 0 0 1 263.954 419.807 L 261.238 363.873 A 108.000 108.000 0 0 0 273.304 362.605 Z"/>
    <path fill="#39c85a" d="M 265.212 419.741 A 164.000 164.000 0 0 1 246.788 419.741 L 249.934 363.829 A 108.000 108.000 0 0 0 262.066 363.829 Z"/>
    <path fill="#32c867" d="M 248.046 419.807 A 164.000 164.000 0 0 1 229.723 417.881 L 238.696 362.605 A 108.000 108.000 0 0 0 250.762 363.873 Z"/>
    <path fill="#2bc873" d="M 230.967 418.078 A 164.000 164.000 0 0 1 212.946 414.248 L 227.647 360.212 A 108.000 108.000 0 0 0 239.515 362.734 Z"/>
    <path fill="#24c980" d="M 214.162 414.574 A 164.000 164.000 0 0 1 196.640 408.880 L 216.909 356.677 A 108.000 108.000 0 0 0 228.448 360.427 Z"/>
    <path fill="#1dc98c" d="M 197.816 409.332 A 164.000 164.000 0 0 1 180.985 401.838 L 206.600 352.040 A 108.000 108.000 0 0 0 217.684 356.975 Z"/>
    <path fill="#16c999" d="M 182.107 402.410 A 164.000 164.000 0 0 1 166.152 393.198 L 196.832 346.350 A 108.000 108.000 0 0 0 207.339 352.416 Z"/>
    <path fill="#16caa8" d="M 167.208 393.884 A 164.000 164.000 0 0 1 152.303 383.055 L 187.712 339.670 A 108.000 108.000 0 0 0 197.527 346.802 Z"/>
    <path fill="#17cbb6" d="M 153.282 383.847 A 164.000 164.000 0 0 1 139.590 371.519 L 179.340 332.074 A 108.000 108.000 0 0 0 188.356 340.192 Z"/>
    <path fill="#17cbc5" d="M 140.481 372.410 A 164.000 164.000 0 0 1 128.153 358.718 L 171.808 323.644 A 108.000 108.000 0 0 0 179.926 332.660 Z"/>
    <path fill="#18ccd3" d="M 128.945 359.697 A 164.000 164.000 0 0 1 118.116 344.792 L 165.198 314.473 A 108.000 108.000 0 0 0 172.330 324.288 Z"/>
    <path fill="#18cde2" d="M 118.802 345.848 A 164.000 164.000 0 0 1 109.590 329.893 L 159.584 304.661 A 108.000 108.000 0 0 0 165.650 315.168 Z"/>
    <path fill="#1dc3e8" d="M 110.162 331.015 A 164.000 164.000 0 0 1 102.668 314.184 L 155.025 294.316 A 108.000 108.000 0 0 0 159.960 305.400 Z"/>
    <path fill="#21b9ee" d="M 103.120 315.360 A 164.000 164.000 0 0 1 97.426 297.838 L 151.573 283.552 A 108.000 108.000 0 0 0 155.323 295.091 Z"/>
    <path fill="#26b0f3" d="M 97.752 299.054 A 164.000 164.000 0 0 1 93.922 281.033 L 149.266 272.485 A 108.000 108.000 0 0 0 151.788 284.353 Z"/>
    <path fill="#2aa6f9" d="M 94.119 282.277 A 164.000 164.000 0 0 1 92.193 263.954 L 148.127 261.238 A 108.000 108.000 0 0 0 149.395 273.304 Z"/>
    <path fill="#2f9cff" d="M 92.259 265.212 A 164.000 164.000 0 0 1 92.259 246.788 L 148.171 249.934 A 108.000 108.000 0 0 0 148.171 262.066 Z"/>
    <path fill="#3894ff" d="M 92.193 248.046 A 164.000 164.000 0 0 1 94.119 229.723 L 149.395 238.696 A 108.000 108.000 0 0 0 148.127 250.762 Z"/>
    <path fill="#418bff" d="M 93.922 230.967 A 164.000 164.000 0 0 1 97.752 212.946 L 151.788 227.647 A 108.000 108.000 0 0 0 149.266 239.515 Z"/>
    <path fill="#4983ff" d="M 97.426 214.162 A 164.000 164.000 0 0 1 103.120 196.640 L 155.323 216.909 A 108.000 108.000 0 0 0 151.573 228.448 Z"/>
    <path fill="#527aff" d="M 102.668 197.816 A 164.000 164.000 0 0 1 110.162 180.985 L 159.960 206.600 A 108.000 108.000 0 0 0 155.025 217.684 Z"/>
    <path fill="#5b72ff" d="M 109.590 182.107 A 164.000 164.000 0 0 1 118.802 166.152 L 165.650 196.832 A 108.000 108.000 0 0 0 159.584 207.339 Z"/>
    <path fill="#7266f7" d="M 118.116 167.208 A 164.000 164.000 0 0 1 128.945 152.303 L 172.330 187.712 A 108.000 108.000 0 0 0 165.198 197.527 Z"/>
    <path fill="#885aef" d="M 128.153 153.282 A 164.000 164.000 0 0 1 140.481 139.590 L 179.926 179.340 A 108.000 108.000 0 0 0 171.808 188.356 Z"/>
    <path fill="#9f4de8" d="M 139.590 140.481 A 164.000 164.000 0 0 1 153.282 128.153 L 188.356 171.808 A 108.000 108.000 0 0 0 179.340 179.926 Z"/>
    <path fill="#b541e0" d="M 152.303 128.945 A 164.000 164.000 0 0 1 167.208 118.116 L 197.527 165.198 A 108.000 108.000 0 0 0 187.712 172.330 Z"/>
    <path fill="#cc35d8" d="M 166.152 118.802 A 164.000 164.000 0 0 1 182.107 109.590 L 207.339 159.584 A 108.000 108.000 0 0 0 196.832 165.650 Z"/>
    <path fill="#d63abe" d="M 180.985 110.162 A 164.000 164.000 0 0 1 197.816 102.668 L 217.684 155.025 A 108.000 108.000 0 0 0 206.600 159.960 Z"/>
    <path fill="#e03fa4" d="M 196.640 103.120 A 164.000 164.000 0 0 1 214.162 97.426 L 228.448 151.573 A 108.000 108.000 0 0 0 216.909 155.323 Z"/>
    <path fill="#eb438b" d="M 212.946 97.752 A 164.000 164.000 0 0 1 230.967 93.922 L 239.515 149.266 A 108.000 108.000 0 0 0 227.647 151.788 Z"/>
    <path fill="#f54871" d="M 229.723 94.119 A 164.000 164.000 0 0 1 248.046 92.193 L 250.762 148.127 A 108.000 108.000 0 0 0 238.696 149.395 Z"/>
  </g>

  <circle cx="256" cy="256" r="96" fill="url(#core)"/>
  <circle cx="256" cy="256" r="96" fill="none" stroke="#ffffff" stroke-opacity="0.03" stroke-width="2"/>
  <circle cx="279" cy="124" r="13" fill="#ff6344" stroke="#f3efe7" stroke-width="4.5"/>
</svg>
